<svg width="13" height="18" viewBox="0 0 13 18" fill="none" xmlns="http://www.w3.org/2000/svg">
<path d="M1.99805 8.74219H-0.00195312M1.99805 8.74219C1.99805 9.30577 2.20876 9.84627 2.58383 10.2448C2.95891 10.6433 3.46761 10.8672 3.99805 10.8672C4.52848 10.8672 5.03719 10.6433 5.41226 10.2448C5.78733 9.84627 5.99805 9.30577 5.99805 8.74219M1.99805 8.74219C1.99805 8.1786 2.20876 7.6381 2.58383 7.23959C2.95891 6.84107 3.46761 6.61719 3.99805 6.61719C4.52848 6.61719 5.03719 6.84107 5.41226 7.23959C5.78733 7.6381 5.99805 8.1786 5.99805 8.74219M12.998 8.74219H5.99805M12.998 3.42969H10.998M10.998 3.42969C10.998 3.99327 10.7873 4.53377 10.4123 4.93229C10.0372 5.3308 9.52848 5.55469 8.99805 5.55469C8.46761 5.55469 7.95891 5.3308 7.58383 4.93229C7.20876 4.53377 6.99805 3.99327 6.99805 3.42969M10.998 3.42969C10.998 2.8661 10.7873 2.3256 10.4123 1.92709C10.0372 1.52857 9.52848 1.30469 8.99805 1.30469C8.46761 1.30469 7.95891 1.52857 7.58383 1.92709C7.20876 2.3256 6.99805 2.8661 6.99805 3.42969M6.99805 3.42969H-0.00195312M12.998 14.0547H10.998M10.998 14.0547C10.998 14.6183 10.7873 15.1588 10.4123 15.5573C10.0372 15.9558 9.52848 16.1797 8.99805 16.1797C8.46761 16.1797 7.95891 15.9558 7.58383 15.5573C7.20876 15.1588 6.99805 14.6183 6.99805 14.0547M10.998 14.0547C10.998 13.4911 10.7873 12.9506 10.4123 12.5521C10.0372 12.1536 9.52848 11.9297 8.99805 11.9297C8.46761 11.9297 7.95891 12.1536 7.58383 12.5521C7.20876 12.9506 6.99805 13.4911 6.99805 14.0547M6.99805 14.0547H-0.00195312" stroke="#F2766A" stroke-width="2"/>
</svg>
