<svg width="32" height="29" viewBox="0 0 32 29" fill="none" xmlns="http://www.w3.org/2000/svg">
<path d="M30.9578 11.013C30.8385 10.8117 30.6216 10.6789 30.3736 10.6789C30.3477 10.6789 30.3228 10.6799 30.2979 10.683H30.301C30.0716 10.6882 29.8008 10.6913 29.5299 10.6913C25.8668 10.6913 22.3385 10.1112 19.0334 9.03824L19.2731 9.10569C19.7836 6.9327 20.1717 4.34981 20.3565 1.70984L20.3658 1.55107C20.3668 1.53446 20.3679 1.51475 20.3679 1.49607C20.3679 1.06645 20.0192 0.717773 19.5896 0.717773C19.5003 0.717773 19.4142 0.732302 19.3343 0.76032L19.3395 0.758245C16.3477 1.78559 12.8994 2.37917 9.313 2.37917C6.58379 2.37917 3.93552 2.03568 1.40762 1.38918L1.62762 1.43692C1.57469 1.42446 1.51451 1.4172 1.45328 1.4172C1.24885 1.4172 1.06206 1.49503 0.921966 1.62267L0.923004 1.62163C0.768383 1.76484 0.671875 1.96823 0.671875 2.19445C0.671875 2.23389 0.674988 2.27332 0.680177 2.31172V2.30757C2.23365 12.8228 5.68408 19.4943 9.96262 20.3837C10.7419 24.9528 12.586 27.9009 15.3816 28.6502C15.7905 28.7633 16.2595 28.8287 16.7431 28.8287C16.7441 28.8287 16.7462 28.8287 16.7473 28.8287C21.5187 28.8287 26.8754 22.4944 31.0461 11.7405C31.0793 11.6575 31.0979 11.5599 31.0979 11.4593C31.0979 11.2911 31.045 11.1355 30.9547 11.0089L30.9568 11.011L30.9578 11.013ZM2.39553 3.20001C4.48655 3.66802 6.88888 3.93576 9.35347 3.93576C12.6929 3.93576 15.9171 3.44387 18.9586 2.52756L18.7231 2.58879C18.5145 4.87178 18.1855 6.92647 17.731 8.93239L17.7922 8.6107C15.337 7.71307 13.2408 6.70648 11.2598 5.52555L11.4351 5.62206C11.322 5.55564 11.1851 5.51621 11.0398 5.51621C10.9194 5.51621 10.8042 5.54319 10.7025 5.59196L10.7077 5.58989C10.4784 5.70092 10.3134 5.91366 10.2729 6.16894L10.2719 6.17309C10.2335 6.41799 10.2075 6.65148 10.1722 6.89327C10.1307 6.70959 10.027 6.55497 9.88582 6.44808L9.88375 6.44705C9.75715 6.35469 9.59837 6.29865 9.42611 6.29865C9.16876 6.29865 8.94046 6.42318 8.79829 6.6162L8.79725 6.61827C8.45065 7.09562 7.93594 7.66533 7.44717 7.67364H7.43576C6.97501 7.67364 6.48417 7.17138 6.15313 6.74695C6.00993 6.56016 5.78578 6.44082 5.53465 6.44082C5.10503 6.44082 4.75636 6.78949 4.75636 7.21911C4.75636 7.40383 4.82069 7.57298 4.92758 7.70684L4.92654 7.70581C5.47135 8.55778 6.37624 9.13786 7.42227 9.22918L7.43472 9.23022H7.47415C8.58556 9.10881 9.52262 8.46438 10.0467 7.55118L10.055 7.53458C10.0685 7.50968 10.083 7.48062 10.0944 7.44949L10.0965 7.4443C9.83809 9.33607 9.66375 11.1417 9.588 12.829C8.91763 13.2639 8.35207 13.7983 7.89754 14.4178L7.88509 14.4354C7.78651 14.5641 7.72736 14.7281 7.72736 14.9045C7.72736 15.3341 8.07603 15.6828 8.50565 15.6828C8.75886 15.6828 8.983 15.5624 9.12517 15.3756L9.12621 15.3735C9.26734 15.1868 9.40224 15.0602 9.54026 14.9055C9.54026 14.9325 9.54026 14.9647 9.54026 14.9979C9.54026 16.3002 9.60979 17.5849 9.74469 18.851L9.7312 18.6932C7.17529 17.6586 4.0424 13.1725 2.39657 3.19793L2.39553 3.20001ZM15.7853 27.1486C12.45 26.2551 9.93771 19.8482 11.6448 7.53458C16.6871 10.4329 22.7173 12.1722 29.1481 12.25H29.1709C24.4949 23.7542 19.1268 28.0369 15.7853 27.1486ZM13.8188 14.891C14.2951 14.5039 14.98 14.0691 15.4999 14.1978C16.052 14.3337 16.4806 15.0902 16.7431 15.7025C16.8656 15.9817 17.1395 16.1736 17.4581 16.1736C17.8877 16.1736 18.2364 15.825 18.2364 15.3953C18.2364 15.2843 18.2136 15.1785 18.171 15.083L18.1731 15.0882C17.8286 13.9581 16.9807 13.076 15.8963 12.6931L15.8704 12.6848C15.7106 12.6589 15.5269 12.6443 15.3401 12.6443C14.3615 12.6443 13.4763 13.0418 12.8361 13.6831C12.6597 13.8273 12.5476 14.0442 12.5476 14.2871C12.5476 14.7167 12.8963 15.0653 13.3259 15.0653C13.5137 15.0653 13.686 14.9989 13.8198 14.8879L13.8188 14.8889V14.891ZM20.7072 16.7371C21.1814 16.3511 21.8829 15.9132 22.3852 16.0439C22.9383 16.1799 23.3679 16.9374 23.6294 17.5476C23.7509 17.8278 24.0258 18.0208 24.3455 18.0208C24.7751 18.0208 25.1238 17.6721 25.1238 17.2425C25.1238 17.1315 25.1009 17.0256 25.0584 16.9301L25.0605 16.9353C24.7159 15.8042 23.866 14.9221 22.7816 14.5392L22.7557 14.5309C22.5938 14.505 22.408 14.4894 22.2181 14.4894C21.2416 14.4894 20.3585 14.8869 19.7224 15.5302C19.546 15.6745 19.435 15.8914 19.435 16.1342C19.435 16.5638 19.7836 16.9125 20.2133 16.9125C20.4011 16.9125 20.5744 16.8461 20.7093 16.734L20.7082 16.735L20.7072 16.7371ZM20.0659 21.0561C19.5066 21.6819 18.6971 22.0741 17.7954 22.0741C17.7372 22.0741 17.6791 22.0721 17.6221 22.0689H17.6304C16.9195 21.9091 16.2564 21.1526 15.6566 19.8233C15.531 19.5514 15.2612 19.3657 14.9468 19.3657C14.5172 19.3657 14.1685 19.7143 14.1685 20.144C14.1685 20.2602 14.1934 20.3702 14.2391 20.4688L14.237 20.4636C15.0599 22.2879 16.0572 23.309 17.2869 23.5871C17.4768 23.6318 17.6957 23.6577 17.9209 23.6577C17.9251 23.6577 17.9292 23.6577 17.9334 23.6577C19.1641 23.5653 20.2558 23.0423 21.0756 22.2422L21.0746 22.2433C21.2427 22.099 21.3496 21.8873 21.3496 21.6497C21.3496 21.219 21.0009 20.8704 20.5702 20.8704C20.3772 20.8704 20.2008 20.9409 20.0649 21.0572L20.0659 21.0561Z" fill="#F2766A"/>
</svg>
