<svg width="27" height="22" viewBox="0 0 27 22" fill="none" xmlns="http://www.w3.org/2000/svg">
<path d="M25.9766 12.1063C25.8401 10.9592 25.0203 7.40344 20.106 7.40344C18.9455 7.40344 17.9825 7.70674 17.18 8.18738C17.2933 6.21762 18.1004 4.52841 19.7147 2.91418L19.9826 2.64626L19.9716 2.63531C20.1401 2.71872 20.3272 2.76969 20.5273 2.76969C21.224 2.76969 21.791 2.20268 21.791 1.50594C21.791 0.80919 21.224 0.242188 20.5273 0.242188C19.9771 0.242188 19.5125 0.597723 19.3398 1.08974C15.126 1.14113 12.0842 2.12939 10.3018 4.0347C9.04694 5.37554 8.78871 6.79347 8.74069 7.46241C8.46519 7.42366 8.18169 7.40344 7.88977 7.40344C3.52435 7.40344 1.91981 10.3126 1.61567 12.1008C1.10343 12.2621 0.728516 12.736 0.728516 13.3009C0.728516 13.9977 1.29552 14.5647 1.99227 14.5647C2.68901 14.5647 3.25602 13.9977 3.25602 13.3009C3.25602 12.9201 3.0833 12.5827 2.81623 12.3506C3.22906 11.8704 3.93044 11.6159 4.87951 11.6159C5.46 11.6159 5.88082 11.7878 6.16685 12.1412C6.73723 12.8468 6.64624 14.0794 6.57125 14.6237C5.63945 14.8406 4.94102 15.6738 4.94102 16.6709L6.31261 21.3047H21.2619L22.6158 16.7918L22.6335 16.6709C22.6335 15.6734 21.9347 14.8398 21.0016 14.6232C20.9114 13.9808 20.8756 12.8009 21.4064 12.1425C21.6924 11.7882 22.1137 11.6159 22.695 11.6159C23.6441 11.6159 24.3459 11.8704 24.7583 12.3506C24.4912 12.5827 24.3185 12.9201 24.3185 13.3009C24.3185 13.9977 24.8855 14.5647 25.5823 14.5647C26.279 14.5647 26.846 13.9977 26.846 13.3009C26.846 12.7424 26.4795 12.2731 25.9766 12.1063ZM20.5273 1.08469C20.7598 1.08469 20.9485 1.27383 20.9485 1.50594C20.9485 1.73805 20.7598 1.92719 20.5273 1.92719C20.2947 1.92719 20.106 1.73805 20.106 1.50594C20.106 1.27383 20.2947 1.08469 20.5273 1.08469ZM10.9169 4.61013C12.5362 2.87963 15.372 1.98111 19.3427 1.93224C19.3587 1.97689 19.3773 2.01986 19.3979 2.06199L19.3869 2.05103L19.119 2.31895C17.2057 4.23143 16.3148 6.24879 16.3148 8.66719V8.8201C15.0165 9.97054 14.2688 11.6062 13.8517 12.8978C13.7165 12.3809 13.5311 11.8093 13.2776 11.2351C12.4439 9.34624 11.181 8.12925 9.57392 7.64355C9.58825 7.20334 9.73484 5.87346 10.9169 4.61013ZM15.051 20.4622H12.5235V16.6709C12.5235 15.9742 13.0905 15.4072 13.7873 15.4072C14.484 15.4072 15.051 15.9742 15.051 16.6709V20.4622ZM9.15352 16.6709C9.15352 15.9742 9.72052 15.4072 10.4173 15.4072C11.114 15.4072 11.681 15.9742 11.681 16.6709V20.4622H9.53475L9.15352 16.6709ZM1.99227 13.7222C1.75974 13.7222 1.57102 13.533 1.57102 13.3009C1.57102 13.0688 1.75974 12.8797 1.99227 12.8797C2.2248 12.8797 2.41352 13.0688 2.41352 13.3009C2.41352 13.533 2.2248 13.7222 1.99227 13.7222ZM4.87951 10.7734C3.89379 10.7734 3.20462 11.0034 2.72019 11.3198C3.224 10.0603 4.53114 8.24594 7.88977 8.24594C9.972 8.24594 11.5226 9.35972 12.4978 11.5561C13.0387 12.7744 13.2493 14.0074 13.326 14.6178C12.8298 14.7294 12.398 15.0146 12.1023 15.4085C11.7177 14.8966 11.1056 14.5647 10.4173 14.5647C9.72894 14.5647 9.11687 14.8966 8.73227 15.4085C8.4197 14.9923 7.95548 14.6986 7.42344 14.6022C7.50685 13.8844 7.54771 12.5124 6.824 11.6138C6.37411 11.0561 5.72033 10.7734 4.87951 10.7734ZM5.78478 16.6132C5.81469 15.943 6.3699 15.4072 7.04727 15.4072C7.74401 15.4072 8.31102 15.9742 8.31102 16.6709H8.3127V16.7131L8.68761 20.4622H6.939L5.78478 16.6132ZM21.7898 16.6132L20.6351 20.4622H18.8865L18.9665 19.6618L18.1282 19.578L18.0398 20.4626H15.8935V16.6714C15.8935 15.9746 16.4605 15.4076 17.1573 15.4076C17.8506 15.4076 18.4143 15.9687 18.4198 16.6608L18.2125 18.7351L19.0508 18.8189L19.2635 16.6709C19.2635 15.9742 19.8305 15.4072 20.5273 15.4072C21.2046 15.4072 21.7598 15.943 21.7898 16.6132ZM22.695 10.7734C21.8546 10.7734 21.2004 11.0561 20.7509 11.6138C20.0268 12.5119 20.0681 13.8844 20.1515 14.6022C19.6195 14.6986 19.1553 14.9923 18.8427 15.4085C18.4577 14.8966 17.8456 14.5647 17.1573 14.5647C16.4689 14.5647 15.8569 14.8966 15.4723 15.4085C15.1812 15.0209 14.7595 14.7374 14.273 14.622C14.388 14.0044 14.6719 12.7824 15.2793 11.5747C16.3902 9.36604 18.0141 8.24594 20.106 8.24594C23.5358 8.24594 24.6387 10.1668 24.9929 11.4167C24.5043 11.051 23.7785 10.7734 22.695 10.7734ZM25.5823 13.7222C25.3497 13.7222 25.161 13.533 25.161 13.3009C25.161 13.0688 25.3497 12.8797 25.5823 12.8797C25.8148 12.8797 26.0035 13.0688 26.0035 13.3009C26.0035 13.533 25.8148 13.7222 25.5823 13.7222Z" fill="#F2766A"/>
</svg>
