<svg width="28" height="31" viewBox="0 0 28 31" fill="none" xmlns="http://www.w3.org/2000/svg">
<path d="M15.0645 23.5537H3.04776C2.31071 23.5537 1.71289 24.0299 1.71289 24.6172V24.6483C1.71289 25.2356 2.31048 25.7113 3.04776 25.7113H15.0645C15.802 25.7113 16.3999 25.2356 16.3999 24.6483V24.6172C16.3998 24.0299 15.802 23.5537 15.0645 23.5537Z" fill="#F2766A"/>
<path d="M4.68407 17.3936C4.47232 17.3936 4.30078 17.5653 4.30078 17.777C4.30078 17.9892 4.47232 18.1609 4.68407 18.1609C4.89622 18.1609 5.06816 17.9892 5.06816 17.777C5.06822 17.5653 4.89622 17.3936 4.68407 17.3936Z" fill="#F2766A"/>
<path d="M7.56367 17.3936C7.35169 17.3936 7.17969 17.5653 7.17969 17.777C7.17969 17.9892 7.35169 18.1609 7.56367 18.1609C7.77536 18.1609 7.94713 17.9892 7.94713 17.777C7.94713 17.5653 7.77536 17.3936 7.56367 17.3936Z" fill="#F2766A"/>
<path d="M6.2194 16.2412C6.00747 16.2412 5.83594 16.4125 5.83594 16.6247C5.83594 16.8368 6.00747 17.0085 6.2194 17.0085C6.43114 17.0085 6.60286 16.8368 6.60286 16.6247C6.60286 16.4125 6.43114 16.2412 6.2194 16.2412Z" fill="#F2766A"/>
<path d="M8.33008 16.1481C8.33008 16.3599 8.50185 16.5312 8.7136 16.5312C8.92552 16.5312 9.09729 16.3599 9.09729 16.1481C9.09729 15.936 8.92552 15.7646 8.7136 15.7646C8.50185 15.7647 8.33008 15.936 8.33008 16.1481Z" fill="#F2766A"/>
<path d="M10.1532 18.2546C10.3656 18.2546 10.5371 18.0829 10.5371 17.8708C10.5371 17.659 10.3656 17.4873 10.1532 17.4873C9.94147 17.4873 9.76953 17.659 9.76953 17.8708C9.76947 18.0829 9.94142 18.2546 10.1532 18.2546Z" fill="#F2766A"/>
<path d="M11.3994 17.0052C11.6112 17.0052 11.7827 16.833 11.7827 16.6208C11.7827 16.4091 11.6111 16.2373 11.3994 16.2373C11.1875 16.2373 11.0155 16.4091 11.0155 16.6208C11.0155 16.833 11.1875 17.0052 11.3994 17.0052Z" fill="#F2766A"/>
<path d="M13.3173 18.2546C13.529 18.2546 13.701 18.0829 13.701 17.8708C13.701 17.659 13.529 17.4873 13.3173 17.4873C13.1058 17.4873 12.9336 17.659 12.9336 17.8708C12.9336 18.0829 13.1058 18.2546 13.3173 18.2546Z" fill="#F2766A"/>
<path d="M16.522 22.1183C16.5631 22.1065 16.6103 22.0986 16.6746 22.0986C16.939 22.0986 17.1536 21.8843 17.1536 21.6193C17.1536 21.3545 16.939 21.1397 16.6744 21.1397C16.5055 21.1397 16.3454 21.1656 16.2006 21.2135C16.0741 21.2556 15.96 21.314 15.8611 21.3799C15.6878 21.4955 15.5591 21.6295 15.4524 21.7502C15.3722 21.8411 15.3035 21.9259 15.2405 21.9971C15.1469 22.1052 15.0667 22.1798 14.9951 22.2229C14.9589 22.244 14.9246 22.2598 14.884 22.2711C14.8436 22.2826 14.7957 22.2905 14.732 22.2905C14.658 22.2905 14.6055 22.2804 14.5605 22.2655C14.5212 22.2527 14.4864 22.2352 14.4491 22.2106C14.3843 22.1684 14.3121 22.099 14.2291 22.0046C14.1669 21.9343 14.0989 21.8504 14.0195 21.759C13.9007 21.6246 13.7551 21.4708 13.5493 21.3461C13.447 21.2837 13.3301 21.231 13.2017 21.1946C13.0736 21.1585 12.9348 21.1397 12.7897 21.1397C12.6208 21.1397 12.4609 21.1651 12.316 21.2135C12.1892 21.2556 12.0755 21.314 11.9766 21.3799C11.8027 21.4954 11.6744 21.6294 11.5679 21.7501C11.4873 21.8411 11.419 21.9259 11.3557 21.9971C11.2615 22.1051 11.1824 22.1797 11.1106 22.2228C11.0742 22.2439 11.0399 22.2597 10.9995 22.2711C10.9591 22.2825 10.911 22.2904 10.8473 22.2904C10.7731 22.2904 10.7208 22.2803 10.676 22.2654C10.6365 22.2522 10.6017 22.2347 10.5644 22.2105C10.5001 22.1684 10.428 22.099 10.3448 22.0045C10.2822 21.9342 10.2145 21.8503 10.1353 21.7599C10.0165 21.6246 9.8704 21.4708 9.66528 21.3461C9.56272 21.2837 9.4461 21.231 9.31744 21.1946C9.18937 21.1585 9.05037 21.1392 8.90545 21.1397C8.73659 21.1392 8.57644 21.1651 8.43192 21.2135C8.30548 21.2551 8.19147 21.3136 8.09222 21.3799C7.91894 21.4954 7.79046 21.6289 7.68325 21.7501C7.60329 21.8411 7.53519 21.9259 7.47214 21.9971C7.37795 22.1051 7.29799 22.1797 7.22663 22.2228C7.19061 22.2439 7.15638 22.2597 7.11576 22.2711C7.07468 22.2825 7.02703 22.2904 6.96334 22.2904C6.88908 22.2904 6.83684 22.2803 6.79181 22.2654C6.7527 22.2522 6.71778 22.2347 6.68093 22.2101C6.61609 22.1684 6.54426 22.0989 6.46082 22.0045C6.39818 21.9338 6.33054 21.8499 6.25128 21.7599C6.13245 21.6246 5.98642 21.4708 5.78083 21.3461C5.67891 21.2837 5.56188 21.231 5.43381 21.1946C5.30533 21.1585 5.16656 21.1392 5.02135 21.1397C4.85249 21.1392 4.69281 21.1651 4.54765 21.2135C4.42115 21.2551 4.3076 21.3136 4.20853 21.3795C4.03478 21.4955 3.90677 21.629 3.79938 21.7502C3.71919 21.8411 3.65092 21.9259 3.58833 21.9971C3.49408 22.1052 3.41441 22.1798 3.34277 22.2229C3.30651 22.244 3.27222 22.2598 3.2316 22.2711C3.19075 22.2826 3.14334 22.29 3.07965 22.2905C3.00521 22.29 2.95315 22.2804 2.90788 22.2655C2.86883 22.2523 2.83385 22.2348 2.79695 22.2101C2.73233 22.1679 2.65993 22.0994 2.5773 22.0046C2.51472 21.9338 2.44661 21.85 2.36735 21.7594C2.24875 21.6246 2.10249 21.4709 1.89737 21.3461C1.79522 21.2837 1.67842 21.231 1.54988 21.1946C1.42187 21.1585 1.28281 21.1392 1.13743 21.1397C0.872973 21.1397 0.658203 21.3544 0.658203 21.6193C0.658203 21.8841 0.872973 22.0985 1.13743 22.0985C1.21215 22.0985 1.26439 22.1091 1.30896 22.1236C1.34848 22.1372 1.38299 22.1544 1.4203 22.1789C1.48468 22.2211 1.55674 22.2896 1.64018 22.3845C1.70236 22.4548 1.77046 22.5391 1.84949 22.6296C1.96855 22.7645 2.11435 22.9182 2.31953 23.0434C2.42186 23.1053 2.53895 23.158 2.66714 23.194C2.79521 23.2305 2.93403 23.2494 3.07959 23.2494C3.24805 23.2498 3.40791 23.2239 3.55289 23.176C3.67933 23.1334 3.79334 23.0754 3.89201 23.0095C4.0657 22.894 4.19417 22.7591 4.30133 22.6387C4.38128 22.5479 4.44979 22.4635 4.51261 22.3914C4.60686 22.2839 4.68612 22.2091 4.75794 22.1661C4.79415 22.1451 4.8282 22.1292 4.86928 22.1178C4.90972 22.1064 4.95714 22.0984 5.02153 22.0984C5.0955 22.0984 5.14785 22.109 5.19283 22.1235C5.23188 22.1371 5.2668 22.1543 5.30393 22.1789C5.36878 22.221 5.44078 22.2895 5.52382 22.3845C5.58599 22.4547 5.65404 22.539 5.73336 22.6296C5.85242 22.7644 5.99822 22.9181 6.20357 23.0433C6.30596 23.1057 6.42276 23.1579 6.55083 23.194C6.67931 23.2304 6.81813 23.2493 6.96329 23.2493C7.13174 23.2498 7.29206 23.2238 7.43658 23.176C7.56355 23.1333 7.67727 23.0753 7.77611 23.0094C7.9498 22.8939 8.07833 22.7591 8.18485 22.6387C8.26544 22.5478 8.33378 22.4634 8.39683 22.3914C8.49108 22.2838 8.57051 22.2091 8.64216 22.166C8.67819 22.145 8.71265 22.1292 8.75332 22.1177C8.79371 22.1064 8.84142 22.0984 8.90568 22.0984C8.97972 22.0984 9.03201 22.109 9.07652 22.1234C9.11604 22.137 9.15102 22.1542 9.18815 22.1788C9.25248 22.2209 9.32471 22.2895 9.40792 22.3844C9.47033 22.4547 9.53843 22.539 9.61746 22.6295C9.73646 22.7644 9.88232 22.9181 10.0877 23.0432C10.19 23.1056 10.3069 23.1579 10.4351 23.1939C10.5636 23.2303 10.7022 23.2492 10.8476 23.2492C11.016 23.2497 11.1761 23.2238 11.3207 23.1759C11.4476 23.1332 11.5614 23.0753 11.6604 23.0094C11.834 22.8938 11.9627 22.759 12.0692 22.6386C12.1494 22.5477 12.2179 22.4634 12.2807 22.3913C12.3747 22.2838 12.4547 22.209 12.5265 22.166C12.5623 22.1449 12.5967 22.1291 12.6374 22.1177C12.6782 22.1063 12.7257 22.0983 12.7898 22.0983C12.8638 22.0983 12.9159 22.1089 12.9611 22.1234C13.0002 22.137 13.0354 22.1542 13.072 22.1788C13.137 22.2209 13.2088 22.2894 13.2923 22.3843C13.3549 22.4546 13.4225 22.5394 13.5023 22.6294C13.6209 22.7647 13.7669 22.918 13.972 23.0432C14.0743 23.1056 14.1912 23.1578 14.3197 23.1939C14.4479 23.2303 14.587 23.2496 14.7321 23.2496C14.9008 23.2496 15.0611 23.2237 15.2052 23.1758C15.3319 23.1337 15.4461 23.0752 15.5449 23.0093C15.7187 22.8938 15.8473 22.759 15.9539 22.6386C16.0339 22.5477 16.1026 22.4633 16.1652 22.3913C16.2594 22.2837 16.3391 22.209 16.4107 22.1659C16.4469 22.1451 16.481 22.1293 16.522 22.1183Z" fill="#F2766A"/>
<path d="M27.32 7.88764H23.0409L23.9389 3.75786L27.0831 1.93232L26.4824 0.897461L22.8814 2.98827L21.8162 7.88764H12.2114L12.7128 14.4193C11.5771 13.9884 10.2946 13.7389 8.93591 13.7389C6.82093 13.7398 4.89062 14.3407 3.41013 15.2978C2.66976 15.7771 2.0408 16.3463 1.56111 16.9836C1.18991 17.4769 0.909246 18.0128 0.742822 18.5763H0.709236L0.625559 19.0757C0.623119 19.0911 0.621201 19.1003 0.620097 19.1052L0.619632 19.1078C0.617482 19.113 0.612833 19.1262 0.606035 19.149C0.599178 19.1715 0.591275 19.2022 0.586045 19.2316C0.577736 19.276 0.573959 19.3159 0.572215 19.3516C0.57024 19.3876 0.569542 19.4214 0.569542 19.4609C0.570007 19.6529 0.596098 19.8413 0.659843 20.0218C0.70726 20.1567 0.776874 20.2862 0.868279 20.4C1.00443 20.5722 1.1891 20.7044 1.38591 20.7826C1.5836 20.8621 1.79116 20.8937 2.00047 20.8937H15.8708C16.0571 20.8937 16.2413 20.8687 16.4192 20.8076C16.5521 20.7614 16.6812 20.6943 16.7959 20.6051C16.9689 20.4716 17.1042 20.288 17.1857 20.089C17.2681 19.8887 17.3015 19.6765 17.3015 19.4608C17.3012 19.405 17.3006 19.3606 17.2958 19.3058C17.2921 19.2653 17.2832 19.214 17.2718 19.1713C17.2631 19.1392 17.2549 19.1173 17.2525 19.1094L17.2518 19.1072C17.2512 19.1045 17.249 19.0962 17.2457 19.0755V19.076C17.1208 18.3288 16.7895 17.6204 16.3108 16.9835C15.7248 16.2064 14.9188 15.5291 13.9575 14.995L13.5038 9.08439H26.0278L24.6578 26.9263H16.9593C16.8227 26.7743 16.6485 26.6451 16.4488 26.5608C16.2422 26.4725 16.014 26.4313 15.7786 26.4317H2.09641C1.81748 26.4309 1.5478 26.4897 1.31415 26.614C1.13907 26.7063 0.987983 26.8332 0.869383 26.9773C0.690641 27.1938 0.582326 27.442 0.516431 27.6937C0.451001 27.9462 0.426014 28.2059 0.425781 28.4686V28.6122C0.425549 29.1727 0.654846 29.6857 1.0225 30.0525C1.38905 30.4202 1.90209 30.6495 2.46261 30.649H15.409C15.9695 30.6495 16.4823 30.4202 16.8491 30.0525C17.2167 29.6857 17.446 29.1727 17.4458 28.6122V28.4686C17.4458 28.3526 17.4408 28.2371 17.43 28.1228H25.7659L27.32 7.88764ZM13.8113 16.3019C14.4476 16.7135 14.9717 17.1944 15.3543 17.7031C15.7371 18.2122 15.9773 18.7459 16.0654 19.2735V19.2739C16.0757 19.3354 16.0871 19.3881 16.1001 19.4342C16.1018 19.4391 16.1034 19.4439 16.1045 19.4487C16.1045 19.4531 16.105 19.4558 16.105 19.461C16.105 19.5427 16.0931 19.5946 16.0835 19.6222C16.0758 19.6433 16.0701 19.6508 16.0672 19.6543C16.0624 19.6595 16.0632 19.6613 16.0376 19.6732C16.0125 19.6833 15.9585 19.6974 15.8709 19.6974H2.00041C1.9222 19.6974 1.87106 19.6864 1.84317 19.6763C1.82184 19.6692 1.81371 19.6635 1.80976 19.6605C1.8047 19.6552 1.80272 19.6565 1.79151 19.6319C1.78274 19.6113 1.77152 19.5682 1.7678 19.5019L1.80598 19.2735C1.89407 18.7459 2.13435 18.2123 2.51717 17.7032C3.09035 16.9398 3.98471 16.2409 5.09359 15.7406C6.20208 15.2394 7.52114 14.9351 8.93591 14.9355C10.8219 14.9345 12.5389 15.4775 13.8113 16.3019ZM16.249 28.6123C16.2488 28.846 16.1559 29.0525 16.003 29.2062C15.849 29.3595 15.6426 29.4522 15.4089 29.4527H2.46249C2.22837 29.4522 2.02238 29.3595 1.86862 29.2062C1.71556 29.0525 1.62265 28.8461 1.62241 28.6123V28.4687C1.62241 28.3048 1.63735 28.1576 1.66373 28.0391C1.68372 27.9504 1.70963 27.8779 1.73706 27.8247C1.75746 27.7843 1.77832 27.7549 1.7979 27.7325C1.82818 27.6987 1.85369 27.6802 1.89454 27.6623C1.93539 27.6447 1.99669 27.6289 2.09635 27.6284H15.7785C15.8975 27.6289 15.9597 27.6504 16.0008 27.6719C16.0317 27.6891 16.0548 27.707 16.0816 27.7391C16.1202 27.7856 16.165 27.8687 16.1974 27.9952C16.2303 28.1199 16.2494 28.2842 16.249 28.4687L16.249 28.6123Z" fill="#F2766A"/>
</svg>
