<svg width="30" height="22" viewBox="0 0 30 22" fill="none" xmlns="http://www.w3.org/2000/svg">
<path d="M27.3629 1.20548C27.0545 1.22376 26.7628 1.35143 26.5401 1.56554C26.3174 1.77966 26.1784 2.06618 26.1481 2.37361L25.172 2.4359C25.1105 2.25193 25.067 2.06241 25.0422 1.87001C24.9955 1.51179 24.9955 1.15876 24.9799 0.97705C24.9644 0.795342 23.2615 0.618825 23.1317 0.670742C23.0019 0.722658 23.3238 2.7474 23.3082 2.79413C23.003 2.84684 22.6939 2.87462 22.3841 2.8772C22.3055 2.10752 22.1578 1.34647 21.9428 0.60325C21.8522 0.47977 21.7177 0.395823 21.5669 0.368768C21.4162 0.341712 21.2608 0.373616 21.1329 0.457884C20.9253 0.5721 18.9628 2.01538 18.9628 2.01538C18.9628 2.01538 17.4988 0.587675 14.2592 0.60325C11.0196 0.618825 9.88261 1.77137 9.88261 1.77137C9.63703 1.63993 9.38192 1.52713 9.11943 1.43392C8.80793 1.33527 7.66058 1.18991 5.01283 1.91674C3.45827 2.34435 2.03221 3.14651 0.859508 4.25299C0.714142 4.35163 0.745292 4.59563 0.797209 4.69427C1.2172 4.93823 1.67814 5.1036 2.15742 5.18229C2.78413 5.40148 3.35488 5.75598 3.82914 6.22062C1.9238 8.27652 1.62268 10.4674 3.19575 11.5732C4.47237 12.3492 5.86358 12.9187 7.31793 13.2605C7.31793 13.2605 5.4697 18.8571 5.30357 19.7708C5.13743 20.6846 6.21211 21.266 7.12065 21.3751C8.02919 21.4841 11.1442 21.6347 12.0735 21.266C13.0028 20.8974 12.7017 20.0979 12.5927 18.9454C12.5343 18.0328 12.5221 17.1179 12.5563 16.2042C12.5563 16.2042 14.1813 16.2042 14.8147 15.794C15.4481 15.3839 15.7076 12.8763 15.7076 12.8763C16.8481 12.7941 17.9587 12.474 18.968 11.9366C20.8837 10.9918 21.1745 9.69384 21.1745 9.69384C21.1745 9.69384 21.6417 9.73018 22.2128 9.69384C22.7839 9.6575 25.0319 9.6575 25.1616 9.51213C25.2914 9.36677 25.0994 9.25255 24.549 8.28171C24.1812 7.61479 23.8653 6.92052 23.6042 6.20505L24.305 5.55609C24.305 5.55609 24.4971 5.94547 24.793 6.46463C25.0783 7.00802 25.4441 7.50512 25.8781 7.93906C26.0546 8.00655 27.0774 6.26735 27.1085 6.12198C27.1397 5.97661 26.9787 5.92989 26.7711 5.67031C26.5443 5.36255 26.3329 5.04374 26.1377 4.71504L26.9632 3.92072C27.0858 4.02834 27.2314 4.10648 27.3889 4.14915C27.664 4.22703 28.8633 4.34124 29.0398 3.18869C29.2163 2.03615 28.4895 1.08088 27.3629 1.20548ZM3.32555 4.6787C2.80638 4.58006 2.51565 4.3672 2.53122 4.27375C2.5468 4.1803 4.24966 3.15755 5.77601 2.63838C7.30235 2.11921 8.34069 2.23343 8.25762 2.33207C7.32687 2.92652 6.44808 3.59864 5.63064 4.34124C4.75325 5.26536 4.47809 5.65473 4.43137 5.59243C4.38464 5.53013 3.84471 4.77215 3.32555 4.6787ZM11.6322 15.062C11.5543 15.8563 11.4868 16.2769 11.4868 16.2769C11.0981 15.8063 10.6784 15.3623 10.2304 14.9478C10.137 14.9478 9.98644 15.3216 10.0228 15.3839C10.0591 15.4462 11.4505 16.8116 11.4661 16.8947C11.4816 16.9777 11.4972 18.0316 11.5439 18.3535C11.5907 18.6754 11.6426 19.1323 11.6426 19.1323C11.6426 19.1323 9.8255 17.2529 9.74762 17.2529C9.66975 17.2529 9.51919 17.6734 9.51919 17.6734C9.51919 17.6734 11.7412 19.828 11.7412 19.9577C11.7412 20.0875 11.8243 20.6067 11.7101 20.6067C11.6124 20.6263 11.5118 20.6263 11.4141 20.6067C11.3518 20.5756 9.17654 18.3379 9.0779 18.3224C8.97926 18.3068 8.77159 18.582 8.80274 18.6754C8.83389 18.7689 10.8171 20.5911 10.7185 20.6223C10.5025 20.6391 10.2855 20.6391 10.0695 20.6223C9.5215 20.0707 8.94256 19.5507 8.33549 19.0648C8.22128 19.0648 7.97727 19.4178 8.00842 19.4697C8.03957 19.5216 9.32191 20.6378 9.32191 20.6378C8.55945 20.6317 7.79948 20.55 7.05315 20.3938C6.41977 20.181 6.37305 19.8435 6.41977 19.6307C6.4665 19.4178 8.28877 13.5409 8.40299 13.3384C8.98915 13.4673 9.58903 13.5231 10.1889 13.5045C11.2947 13.5045 12.0735 13.4059 12.0735 13.4059C11.8588 13.9377 11.7106 14.4939 11.6322 15.062ZM14.0671 15.2385C13.654 15.3751 13.2194 15.4349 12.7847 15.415C12.737 14.7069 12.9191 14.0023 13.3039 13.4059C13.3299 13.3643 14.633 13.2449 14.633 13.2449C14.633 13.2449 14.1501 15.1762 14.0671 15.2385ZM20.4269 9.00854C20.1339 8.53379 19.8023 8.08404 19.4353 7.6639C19.321 7.6639 19.1445 7.77812 19.1445 7.88714C19.1445 7.99617 20.214 9.44464 20.1517 9.5952C20.0894 9.74576 19.8402 10.3376 19.7468 10.3532C19.6533 10.3688 18.6254 8.48938 18.5371 8.45823C18.4488 8.42708 18.2308 8.45823 18.2152 8.55687C18.1996 8.65551 19.3678 10.6335 19.3678 10.6335C19.3678 10.6335 18.8486 11.0385 18.7967 11.0073C18.7448 10.9762 17.6286 8.93067 17.5299 8.93067C17.4313 8.93067 17.1613 9.06046 17.1769 9.12276C17.1925 9.18506 18.4385 11.1683 18.3762 11.2306C18.3139 11.2929 17.7739 11.5888 17.7428 11.5265C17.7116 11.4642 16.476 9.44983 16.3826 9.44983C16.2891 9.44983 16.0088 9.6575 16.0243 9.70942C16.0399 9.76133 17.2911 11.6355 17.1925 11.703C17.0938 11.7705 16.7044 11.9159 16.6733 11.8484C16.6421 11.7809 15.4948 10.2234 15.4221 10.2234C15.3494 10.2234 15.0016 10.4207 15.0172 10.5037C15.0327 10.5868 16.1386 11.9626 16.0555 12.0093C15.899 12.0612 15.7369 12.0944 15.5727 12.108C15.2415 11.5934 14.8774 11.1009 14.4824 10.6335C14.389 10.6335 14.1294 10.727 14.1294 10.7789C14.1294 10.8308 15.0016 12.108 14.9549 12.1547C14.7586 12.2135 14.5568 12.2518 14.3526 12.2689C14.0963 11.8059 13.8047 11.3633 13.4804 10.945C13.387 10.945 12.9613 11.0904 13.0132 11.1579C13.0651 11.2254 13.7919 12.3104 13.6933 12.3572C12.2171 12.5769 10.7201 12.6204 9.23365 12.487C6.89741 12.2897 4.85189 11.4486 4.04199 10.7685C3.2321 10.0884 2.96213 9.42907 3.61628 8.29729C4.67228 6.75455 5.9274 5.35804 7.34908 4.14396C8.99312 2.75311 10.9957 1.85348 13.1274 1.54813C15.5415 1.2574 17.343 1.60005 18.6928 2.94469C20.0427 4.28933 20.5722 6.66191 20.619 7.47181C20.6408 7.99117 20.5759 8.51055 20.4269 9.00854ZM23.7547 8.83203C23.7028 8.87875 21.7092 8.89432 21.7092 8.89432C21.7694 7.54121 21.5539 6.18998 21.0758 4.92271C20.7154 4.01056 20.1871 3.17409 19.5183 2.45667C19.5962 2.37361 21.1537 1.30412 21.1537 1.41834C21.262 2.89237 21.6256 4.33637 22.2284 5.68588C23.1681 7.83004 23.8014 8.78011 23.7547 8.83203ZM23.329 5.64954C22.9038 4.95939 22.6328 4.18546 22.5347 3.38079C22.7909 3.29702 23.0641 3.27917 23.329 3.32887C23.3965 3.39636 23.4432 3.67152 23.7184 4.3049C23.9935 4.93828 24.0766 5.16152 24.0766 5.16152L23.329 5.64954ZM26.444 6.25177C26.444 6.35041 25.9767 7.09282 25.9248 7.0461C25.1941 6.1537 24.6296 5.1373 24.2583 4.04532C24.0085 3.19719 23.8347 2.32847 23.7391 1.44949C23.7391 1.33527 24.466 1.39757 24.4971 1.44949C24.6463 2.27599 24.858 3.08996 25.1305 3.88438C25.5083 4.71503 25.9528 5.5137 26.4596 6.27254L26.444 6.25177ZM25.8781 4.17511C25.7116 4.00934 25.5857 3.80738 25.51 3.58496C25.4344 3.36254 25.4111 3.12566 25.442 2.89277C25.442 2.8097 26.091 2.82528 26.091 2.82528C26.1144 3.01077 26.1801 3.18839 26.283 3.34445L26.5115 3.67152C26.5115 3.67152 25.9767 4.22183 25.8937 4.15954L25.8781 4.17511ZM28.4739 3.00699C28.4469 3.16352 28.3737 3.30838 28.2635 3.42283C28.1534 3.53729 28.0114 3.6161 27.8561 3.64908C27.7007 3.68205 27.539 3.66769 27.3918 3.60783C27.2447 3.54797 27.1189 3.44538 27.0306 3.31329C26.5115 2.71106 26.5426 1.72465 27.5498 1.80252C27.6999 1.78975 27.8509 1.81408 27.9894 1.87338C28.1279 1.93268 28.2497 2.02512 28.3441 2.14257C28.4384 2.26001 28.5025 2.39886 28.5306 2.54689C28.5586 2.69491 28.5499 2.84757 28.5051 2.99141L28.4739 3.00699ZM11.1442 14.9634C11.1961 14.9634 11.274 14.8336 11.2947 14.6726C11.3155 14.5117 10.8223 14.1535 10.7756 14.1016C10.7288 14.0496 10.5419 14.3767 10.5835 14.4131C10.625 14.4494 11.0975 14.9478 11.1442 14.9634ZM9.86703 16.6974C10.2551 17.1204 10.677 17.5111 11.1286 17.8655C11.2272 17.8655 11.1286 17.3463 11.1286 17.2529C11.1286 17.1594 9.99682 16.0225 9.99682 16.1367C9.99682 16.2509 9.79954 16.5832 9.86703 16.6974ZM7.3335 5.61839C7.64468 6.26957 8.00209 6.89764 8.40299 7.49777C8.48605 7.59641 8.67814 7.4199 8.73006 7.32125C8.45551 6.66947 8.14171 6.03492 7.79037 5.42111C7.62133 5.43797 7.46169 5.50691 7.3335 5.61839ZM9.06752 4.35163C8.97407 4.35163 8.60027 4.50738 8.60027 4.56448C8.60027 4.62159 9.92933 7.1084 9.99682 7.16031C10.0743 7.16452 10.1511 7.14487 10.217 7.10403C10.2829 7.06318 10.3347 7.00309 10.3654 6.93188C10.0178 6.03162 9.58307 5.16744 9.06752 4.35163ZM10.6769 3.41194C10.516 3.34444 10.111 3.55211 10.0903 3.60403C10.028 3.78574 11.2272 5.90912 11.3415 6.02334C11.4557 6.13756 11.8606 5.94027 11.8918 5.83125C11.5751 4.98341 11.1678 4.17226 10.6769 3.41194ZM11.7879 3.57288C11.7879 3.57288 12.4369 5.35881 12.5355 5.44187C12.6342 5.52494 12.9405 5.32766 12.9924 5.21344C12.7931 4.59607 12.5376 3.99827 12.2292 3.42751C12.1514 3.36521 11.8762 3.51058 11.7879 3.57288ZM16.72 2.35803C16.2136 2.16162 15.6745 2.06297 15.1314 2.0673C15.0172 2.11402 15.0016 2.55012 15.0846 2.64876C15.1677 2.7474 15.7492 2.71625 16.3306 2.8772C16.7732 3.02446 17.2066 3.19782 17.6286 3.39636C17.696 3.39636 17.8258 3.00699 17.8103 2.8772C17.7947 2.7474 17.4417 2.58646 16.7096 2.35803H16.72Z" fill="#F2766A"/>
</svg>
