<svg width="22" height="26" viewBox="0 0 22 26" fill="none" xmlns="http://www.w3.org/2000/svg">
<path d="M17.0445 12.7783C16.9919 12.6051 16.8331 12.486 16.6521 12.4839C16.4691 12.4816 16.3096 12.5972 16.253 12.7691L12.562 23.9718C12.4944 24.1769 12.5953 24.3994 12.794 24.4838C13.9729 24.9844 15.2385 25.2347 16.5042 25.2347C17.7698 25.2347 19.0355 24.9844 20.2144 24.4838C20.4097 24.4009 20.5111 24.1839 20.4493 23.981L17.0445 12.7783ZM13.4728 23.8607L16.6313 14.2742L19.5441 23.8576C17.5956 24.5862 15.422 24.5873 13.4728 23.8607Z" fill="#F2766A"/>
<path d="M12.9477 15.2078C12.3916 15.6595 12.0479 16.3011 11.9797 17.0144C11.9116 17.7276 12.1276 18.4227 12.588 18.9716C12.6701 19.0695 12.7878 19.12 12.9063 19.12C13.0004 19.12 13.0951 19.0881 13.1728 19.0229C13.3485 18.8756 13.3715 18.6137 13.2241 18.438C12.9078 18.0609 12.7594 17.5834 12.8062 17.0934C12.8531 16.6033 13.0892 16.1626 13.4713 15.8522C14.0306 15.3979 14.3747 14.7524 14.4403 14.0348C14.5056 13.3201 14.2862 12.6258 13.8225 12.0786C16.1394 11.603 17.9092 9.16506 17.9092 6.23778C17.9092 2.97027 15.7047 0.312012 12.9952 0.312012C11.184 0.312012 9.51411 1.52767 8.66446 3.43515C8.55204 3.42585 8.43861 3.4207 8.32425 3.4207C5.61462 3.4207 3.41016 6.07891 3.41016 9.34635C3.41016 12.5346 5.50922 15.1424 8.12835 15.2669L8.51417 15.7193C8.83545 16.096 8.98757 16.575 8.94246 17.068C8.89734 17.561 8.66098 18.0044 8.27676 18.3166C7.72071 18.7684 7.37696 19.4099 7.30882 20.1232C7.24067 20.8364 7.45667 21.5314 7.91706 22.0804L9.33487 23.771C9.41696 23.8689 9.53464 23.9194 9.65316 23.9194C9.74726 23.9194 9.84198 23.8875 9.91969 23.8223C10.0954 23.675 10.1184 23.4131 9.97101 23.2374L8.5532 21.5469C8.2369 21.1698 8.08849 20.6922 8.13532 20.2022C8.18215 19.7122 8.4183 19.2715 8.80036 18.9611C9.35967 18.5067 9.70375 17.8612 9.76935 17.1437C9.83472 16.4291 9.6153 15.7349 9.15164 15.1876C10.6669 14.8765 11.9479 13.7264 12.6531 12.1487C12.7017 12.1527 12.7504 12.1556 12.7991 12.1579L13.1851 12.6106C13.5064 12.9873 13.6585 13.4663 13.6134 13.9593C13.5683 14.4523 13.3319 14.8956 12.9477 15.2078ZM12.9952 1.14234C15.2469 1.14234 17.0788 3.42812 17.0788 6.23778C17.0788 9.0471 15.2469 11.3327 12.9952 11.3327C12.9816 11.3327 12.9679 11.332 12.9543 11.3318C13.1379 10.7108 13.2383 10.0425 13.2383 9.34635C13.2383 6.57007 11.6467 4.23403 9.50603 3.59435C10.2419 2.09052 11.571 1.14234 12.9952 1.14234ZM8.32419 14.4417C6.07235 14.4417 4.24043 12.156 4.24043 9.34635C4.24043 6.53675 6.0724 4.25103 8.32419 4.25103C10.576 4.25103 12.408 6.53675 12.408 9.34635C12.408 12.1559 10.576 14.4417 8.32419 14.4417Z" fill="#F2766A"/>
<path d="M16.3617 18.9144C16.2664 18.6892 15.9902 18.5913 15.7756 18.7114C15.5373 18.8448 15.4965 19.1734 15.6847 19.3672C15.8199 19.4983 16.0277 19.5264 16.1907 19.43C16.3659 19.3263 16.4394 19.1022 16.3617 18.9144C16.3722 18.9398 16.3512 18.8894 16.3617 18.9144Z" fill="#F2766A"/>
<path d="M17.0352 21.2286C17.0997 21.3818 17.2513 21.4847 17.4183 21.4849C17.5879 21.4849 17.7433 21.3782 17.8052 21.2207C17.8678 21.0611 17.8227 20.8735 17.6943 20.7595C17.5611 20.6414 17.3623 20.6222 17.2088 20.7119C17.0331 20.8148 16.9555 21.0401 17.0352 21.2286C17.0458 21.2535 17.0247 21.2037 17.0352 21.2286Z" fill="#F2766A"/>
<path d="M15.697 23.0135C15.628 22.8507 15.4605 22.7449 15.2831 22.7585C15.1096 22.7718 14.9606 22.8944 14.9138 23.0619C14.8128 23.4231 15.2312 23.7279 15.5442 23.5177C15.7071 23.4084 15.772 23.1948 15.697 23.0135C15.7075 23.0389 15.6864 22.9885 15.697 23.0135Z" fill="#F2766A"/>
<path d="M1.43727 2.1758C1.27508 2.01367 1.01225 2.01367 0.850117 2.1758C0.687982 2.33794 0.687982 2.60076 0.850117 2.7629L1.37599 3.28877C1.45709 3.36987 1.56337 3.41039 1.66959 3.41039C1.77582 3.41039 1.8821 3.36987 1.9632 3.28877C2.12533 3.12664 2.12533 2.86381 1.9632 2.70167L1.43727 2.1758Z" fill="#F2766A"/>
<path d="M19.7023 4.48851C19.8085 4.48851 19.9148 4.44799 19.9959 4.3669L20.5217 3.84102C20.6839 3.67889 20.6839 3.41606 20.5217 3.25393C20.3595 3.09179 20.0967 3.09179 19.9346 3.25393L19.4087 3.7798C19.2466 3.94193 19.2466 4.20476 19.4087 4.3669C19.4898 4.44799 19.596 4.48851 19.7023 4.48851Z" fill="#F2766A"/>
<path d="M14.2839 8.88462C14.3503 8.92393 14.4231 8.94258 14.4951 8.94258C14.6369 8.94258 14.7752 8.86984 14.8527 8.73887L15.2316 8.09891C15.3484 7.90163 15.2832 7.64694 15.0859 7.53014C14.8886 7.4134 14.6341 7.47849 14.5171 7.67583L14.1382 8.31579C14.0214 8.51319 14.0866 8.76782 14.2839 8.88462Z" fill="#F2766A"/>
<path d="M5.60841 19.2774L5.08254 19.8032C4.9204 19.9654 4.9204 20.2283 5.08254 20.3903C5.16363 20.4714 5.26992 20.5119 5.37614 20.5119C5.48237 20.5119 5.58865 20.4714 5.66975 20.3903L6.19562 19.8645C6.35775 19.7023 6.35775 19.4394 6.19562 19.2774C6.03337 19.1152 5.77055 19.1152 5.60841 19.2774Z" fill="#F2766A"/>
<path d="M1.3761 12.9878C1.14676 12.9878 0.960938 13.1737 0.960938 13.403V14.1467C0.960938 14.3759 1.14676 14.5618 1.3761 14.5618C1.60544 14.5618 1.79126 14.3759 1.79126 14.1467V13.403C1.79126 13.1737 1.60538 12.9878 1.3761 12.9878Z" fill="#F2766A"/>
<path d="M20.9421 11.2261H20.1984C19.969 11.2261 19.7832 11.412 19.7832 11.6412C19.7832 11.8705 19.969 12.0564 20.1984 12.0564H20.9421C21.1715 12.0564 21.3573 11.8705 21.3573 11.6412C21.3573 11.412 21.1715 11.2261 20.9421 11.2261Z" fill="#F2766A"/>
<path d="M7.85808 5.44482H7.11438C6.88505 5.44482 6.69922 5.63071 6.69922 5.85999C6.69922 6.08927 6.88505 6.27515 7.11438 6.27515H7.85808C8.08741 6.27515 8.27324 6.08927 8.27324 5.85999C8.27324 5.63071 8.08741 5.44482 7.85808 5.44482Z" fill="#F2766A"/>
</svg>
